# xmcd CD database file generated by MAGIX_Freedb v0.9beta0
#
# Track frame offsets:
#      150
#      14470
#      29547
#      41840
#      56520
#      71672
#      84160
#      95017
#      112230
#      125110
#      137762
#      154100
#
# Disc length: 2240 seconds
#
# Revision: 0
# Processed by: cddbd v1.5.2PL0 Copyright (c) Steve Scherf et al.
# Submitted via: MAGIX_Freedb v0.9beta0
#
DISCID=ab08be0c
DTITLE=Slavko Avsenik - Komm mit mir nach Oberkrain
DYEAR=1992
DGENRE=Volksmusik
TTITLE0=Slavko Avsenik - Komm mit mir nach Oberkrain
TTITLE1=Slavko Avsenik - Oh, St. Florian
TTITLE2=Slavko Avsenik - In lustiger Gesellschaft
TTITLE3=Slavko Avsenik - Der lustige Rentner
TTITLE4=Slavko Avsenik - Wünsche hat man viele im Leben
TTITLE5=Slavko Avsenik - Hochzeitsgäste-Gruß
TTITLE6=Slavko Avsenik - Die schönsten Jahre
TTITLE7=Slavko Avsenik - Spätherbst-Walzer
TTITLE8=Slavko Avsenik - Opa geh' tanzen
TTITLE9=Slavko Avsenik - Kaffeehaus-Tratsch
TTITLE10=Slavko Avsenik - Gitarren-Romanze
TTITLE11=Slavko Avsenik - Kein Grund für schlechte Laune
EXTD=
EXTT0=
EXTT1=
EXTT2=
EXTT3=
EXTT4=
EXTT5=
EXTT6=
EXTT7=
EXTT8=
EXTT9=
EXTT10=
EXTT11=
PLAYORDER=
